<?xml version="1.0" encoding="UTF-8"?>
<svg width="160px" height="60px" viewBox="0 0 160 60" version="1.1" xmlns="http://www.w3.org/2000/svg">
    <g stroke="none" stroke-width="1" fill="none" fill-rule="evenodd">
        <!-- Pokemon-style text outline -->
        <path d="M10,10 L150,10 L150,50 L10,50 L10,10 Z" fill="#3366CC" />
        <path d="M14,14 L146,14 L146,46 L14,46 L14,14 Z" fill="#FFDE00" />

        <!-- Pixel "P" -->
        <rect x="20" y="20" width="4" height="20" fill="#3366CC" />
        <rect x="24" y="20" width="8" height="4" fill="#3366CC" />
        <rect x="32" y="24" width="4" height="4" fill="#3366CC" />
        <rect x="24" y="28" width="8" height="4" fill="#3366CC" />

        <!-- Pixel "O" -->
        <rect x="40" y="20" width="12" height="4" fill="#3366CC" />
        <rect x="40" y="24" width="4" height="12" fill="#3366CC" />
        <rect x="48" y="24" width="4" height="12" fill="#3366CC" />
        <rect x="40" y="36" width="12" height="4" fill="#3366CC" />

        <!-- Pixel "K" -->
        <rect x="56" y="20" width="4" height="20" fill="#3366CC" />
        <rect x="60" y="28" width="4" height="4" fill="#3366CC" />
        <rect x="64" y="24" width="4" height="4" fill="#3366CC" />
        <rect x="64" y="32" width="4" height="4" fill="#3366CC" />
        <rect x="68" y="20" width="4" height="4" fill="#3366CC" />
        <rect x="68" y="36" width="4" height="4" fill="#3366CC" />

        <!-- Pixel "E" -->
        <rect x="76" y="20" width="12" height="4" fill="#3366CC" />
        <rect x="76" y="24" width="4" height="12" fill="#3366CC" />
        <rect x="76" y="36" width="12" height="4" fill="#3366CC" />
        <rect x="76" y="28" width="8" height="4" fill="#3366CC" />

        <!-- Pixel "M" -->
        <rect x="92" y="20" width="4" height="20" fill="#3366CC" />
        <rect x="96" y="24" width="4" height="4" fill="#3366CC" />
        <rect x="100" y="28" width="4" height="4" fill="#3366CC" />
        <rect x="104" y="24" width="4" height="4" fill="#3366CC" />
        <rect x="108" y="20" width="4" height="20" fill="#3366CC" />

        <!-- Pixel "LE" -->
        <rect x="116" y="20" width="4" height="20" fill="#3366CC" />
        <rect x="116" y="36" width="12" height="4" fill="#3366CC" />
        <rect x="132" y="20" width="12" height="4" fill="#3366CC" />
        <rect x="132" y="24" width="4" height="12" fill="#3366CC" />
        <rect x="132" y="36" width="12" height="4" fill="#3366CC" />
        <rect x="132" y="28" width="8" height="4" fill="#3366CC" />
    </g>
</svg>